<svg width="48" height="49" viewBox="0 0 48 49" fill="none" xmlns="http://www.w3.org/2000/svg">
<g clip-path="url(#clip0_76_1578)">
<path d="M25.3333 40.5H5.33332C4.62608 40.5 3.9478 40.219 3.4477 39.719C2.94761 39.2189 2.66666 38.5406 2.66666 37.8333V11.1667C2.66666 10.4594 2.94761 9.78115 3.4477 9.28105C3.9478 8.78095 4.62608 8.5 5.33332 8.5H42.6667C43.3739 8.5 44.0522 8.78095 44.5523 9.28105C45.0524 9.78115 45.3333 10.4594 45.3333 11.1667V24.9933C43.557 22.731 40.9732 21.2449 38.1244 20.8473C35.2757 20.4496 32.3837 21.1713 30.0557 22.8607C27.7278 24.5501 26.1451 27.0759 25.6399 29.9076C25.1348 32.7392 25.7465 35.6565 27.3467 38.0467L26.1067 39.5667L25.3333 40.5ZM9.33332 16.5V18.6333H32V16.5H9.33332ZM9.33332 23.9667H24V21.8333H9.33332V23.9667ZM9.33332 33.3H22.6667V31.1667H9.33332V33.3Z" fill="#02385C"/>
<path d="M45.1067 31.9534C45.1102 30.5475 44.7648 29.1627 44.1012 27.9233C43.4377 26.6838 42.4769 25.6285 41.305 24.8519C40.1331 24.0753 38.7867 23.6018 37.3867 23.4738C35.9867 23.3458 34.5768 23.5673 33.2834 24.1185C31.9901 24.6697 30.8539 25.5333 29.9766 26.6318C29.0993 27.7304 28.5084 29.0296 28.257 30.4128C28.0055 31.796 28.1014 33.2199 28.5359 34.557C28.9704 35.894 29.7301 37.1023 30.7467 38.0734L28.16 41.2334L29.36 46.0467L34.24 40.1C35.7847 40.5568 37.4286 40.5568 38.9733 40.1L43.8533 46.0467L45.0533 41.2334L42.4667 38.0734C43.2985 37.2854 43.9615 36.3366 44.4153 35.2845C44.8691 34.2325 45.1043 33.0991 45.1067 31.9534ZM30.7867 31.9534C30.7708 30.7977 31.099 29.6634 31.7295 28.6947C32.36 27.7261 33.2644 26.9668 34.3276 26.5135C35.3908 26.0602 36.5647 25.9334 37.7002 26.1491C38.8357 26.3648 39.8814 26.9133 40.7043 27.7249C41.5272 28.5365 42.0901 29.5745 42.3215 30.7069C42.5529 31.8393 42.4423 33.0149 42.0037 34.0843C41.5651 35.1536 40.8185 36.0684 39.8586 36.7122C38.8988 37.3561 37.7691 37.6999 36.6133 37.7C35.082 37.7036 33.6113 37.1014 32.5223 36.0248C31.4332 34.9483 30.8141 33.4847 30.8 31.9534H30.7867Z" fill="#02385C"/>
</g>
<defs>
<clipPath id="clip0_76_1578">
<rect width="48" height="48" fill="white" transform="translate(0 0.5)"/>
</clipPath>
</defs>
</svg>
