<svg width="18" height="22" viewBox="0 0 18 22" fill="none" xmlns="http://www.w3.org/2000/svg">
<path fill-rule="evenodd" clip-rule="evenodd" d="M8.298 0.194996C8.69262 0.0473478 9.12379 0.0280993 9.53 0.139996L9.702 0.194996L16.702 2.82C17.0569 2.95309 17.3667 3.1843 17.5953 3.4867C17.8239 3.7891 17.9618 4.15022 17.993 4.528L18 4.693V10.056C18 11.6764 17.5624 13.2668 16.7336 14.6592C15.9048 16.0516 14.7154 17.1944 13.291 17.967L13.025 18.106L9.671 19.783C9.48632 19.8752 9.28461 19.9283 9.07847 19.939C8.87233 19.9496 8.66621 19.9176 8.473 19.845L8.329 19.783L4.975 18.106C3.52561 17.3813 2.29878 16.2787 1.424 14.9146C0.549233 13.5505 0.0589805 11.9756 0.00500011 10.356L0 10.056V4.693C5.81505e-06 4.31413 0.107627 3.94305 0.310334 3.62297C0.513041 3.30288 0.802495 3.04696 1.145 2.885L1.298 2.82L8.298 0.194996ZM12.433 6.629L7.835 11.227L6.067 9.45899C5.87936 9.27149 5.62492 9.1662 5.35965 9.16629C5.09438 9.16639 4.84001 9.27185 4.6525 9.4595C4.46499 9.64714 4.3597 9.90158 4.3598 10.1668C4.35989 10.4321 4.46536 10.6865 4.653 10.874L7.057 13.278C7.15915 13.3802 7.28044 13.4613 7.41393 13.5166C7.54742 13.5719 7.6905 13.6004 7.835 13.6004C7.9795 13.6004 8.12258 13.5719 8.25607 13.5166C8.38956 13.4613 8.51085 13.3802 8.613 13.278L13.847 8.043C13.9425 7.95075 14.0187 7.8404 14.0711 7.7184C14.1235 7.5964 14.1511 7.46518 14.1523 7.3324C14.1534 7.19962 14.1281 7.06794 14.0778 6.94504C14.0275 6.82215 13.9533 6.71049 13.8594 6.6166C13.7655 6.52271 13.6539 6.44845 13.531 6.39817C13.4081 6.34789 13.2764 6.32259 13.1436 6.32375C13.0108 6.3249 12.8796 6.35249 12.7576 6.40489C12.6356 6.4573 12.5252 6.53349 12.433 6.629Z" fill="#02385C"/>
</svg>
