<svg width="137" height="24" viewBox="0 0 137 24" fill="none" xmlns="http://www.w3.org/2000/svg">
<path d="M12.3179 0.741794C12.5108 0.41066 12.9892 0.410661 13.1821 0.741794L16.5185 6.4701C16.5891 6.5914 16.7075 6.67741 16.8447 6.70712L23.3237 8.11011C23.6982 8.19122 23.846 8.64618 23.5907 8.93193L19.1738 13.8752C19.0802 13.9799 19.035 14.1191 19.0492 14.2587L19.7169 20.8541C19.7556 21.2354 19.3685 21.5166 19.0179 21.362L12.9516 18.6889C12.8232 18.6322 12.6768 18.6322 12.5484 18.6889L6.48213 21.362C6.13146 21.5166 5.74445 21.2354 5.78305 20.8541L6.45083 14.2587C6.46497 14.1191 6.41975 13.9799 6.32622 13.8752L1.9093 8.93193C1.65397 8.64618 1.8018 8.19122 2.17632 8.11011L8.65527 6.70712C8.79247 6.67741 8.91086 6.5914 8.98151 6.4701L12.3179 0.741794Z" fill="#FFC107"/>
<path d="M40.3179 0.741794C40.5108 0.41066 40.9892 0.410661 41.1821 0.741794L44.5185 6.4701C44.5891 6.5914 44.7075 6.67741 44.8447 6.70712L51.3237 8.11011C51.6982 8.19122 51.846 8.64618 51.5907 8.93193L47.1738 13.8752C47.0802 13.9799 47.035 14.1191 47.0492 14.2587L47.7169 20.8541C47.7556 21.2354 47.3685 21.5166 47.0179 21.362L40.9516 18.6889C40.8232 18.6322 40.6768 18.6322 40.5484 18.6889L34.4821 21.362C34.1315 21.5166 33.7445 21.2354 33.7831 20.8541L34.4508 14.2587C34.465 14.1191 34.4198 13.9799 34.3262 13.8752L29.9093 8.93193C29.654 8.64618 29.8018 8.19122 30.1763 8.11011L36.6553 6.70712C36.7925 6.67741 36.9109 6.5914 36.9815 6.4701L40.3179 0.741794Z" fill="#FFC107"/>
<path d="M68.3179 0.741794C68.5108 0.41066 68.9892 0.410661 69.1821 0.741794L72.5185 6.4701C72.5891 6.5914 72.7075 6.67741 72.8447 6.70712L79.3237 8.11011C79.6982 8.19122 79.846 8.64618 79.5907 8.93193L75.1738 13.8752C75.0802 13.9799 75.035 14.1191 75.0492 14.2587L75.7169 20.8541C75.7556 21.2354 75.3685 21.5166 75.0179 21.362L68.9516 18.6889C68.8232 18.6322 68.6768 18.6322 68.5484 18.6889L62.4821 21.362C62.1315 21.5166 61.7445 21.2354 61.7831 20.8541L62.4508 14.2587C62.465 14.1191 62.4198 13.9799 62.3262 13.8752L57.9093 8.93193C57.654 8.64618 57.8018 8.19122 58.1763 8.11011L64.6553 6.70712C64.7925 6.67741 64.9109 6.5914 64.9815 6.4701L68.3179 0.741794Z" fill="#FFC107"/>
<path d="M96.3179 0.741794C96.5108 0.41066 96.9892 0.410661 97.1821 0.741794L100.518 6.4701C100.589 6.5914 100.708 6.67741 100.845 6.70712L107.324 8.11011C107.698 8.19122 107.846 8.64618 107.591 8.93193L103.174 13.8752C103.08 13.9799 103.035 14.1191 103.049 14.2587L103.717 20.8541C103.756 21.2354 103.369 21.5166 103.018 21.362L96.9516 18.6889C96.8232 18.6322 96.6768 18.6322 96.5484 18.6889L90.4821 21.362C90.1315 21.5166 89.7445 21.2354 89.7831 20.8541L90.4508 14.2587C90.465 14.1191 90.4198 13.9799 90.3262 13.8752L85.9093 8.93193C85.654 8.64618 85.8018 8.19122 86.1763 8.11011L92.6553 6.70712C92.7925 6.67741 92.9109 6.5914 92.9815 6.4701L96.3179 0.741794Z" fill="#FFC107"/>
<path d="M124.318 0.741794C124.511 0.41066 124.989 0.410661 125.182 0.741794L128.518 6.4701C128.589 6.5914 128.708 6.67741 128.845 6.70712L135.324 8.11011C135.698 8.19122 135.846 8.64618 135.591 8.93193L131.174 13.8752C131.08 13.9799 131.035 14.1191 131.049 14.2587L131.717 20.8541C131.756 21.2354 131.369 21.5166 131.018 21.362L124.952 18.6889C124.823 18.6322 124.677 18.6322 124.548 18.6889L118.482 21.362C118.131 21.5166 117.744 21.2354 117.783 20.8541L118.451 14.2587C118.465 14.1191 118.42 13.9799 118.326 13.8752L113.909 8.93193C113.654 8.64618 113.802 8.19122 114.176 8.11011L120.655 6.70712C120.792 6.67741 120.911 6.5914 120.982 6.4701L124.318 0.741794Z" fill="#FFC107"/>
</svg>
