<svg width="254" height="61" viewBox="0 0 254 61" fill="none" xmlns="http://www.w3.org/2000/svg">
<rect x="0.5" width="253" height="61" rx="8" fill="#02385C" fill-opacity="0.2"/>
<path opacity="0.987" fill-rule="evenodd" clip-rule="evenodd" d="M27.3135 20.0916C28.401 19.9701 29.0445 19.9701 30.213 20.0916C32.2814 20.3978 34.1988 21.3538 35.688 22.8216C34.6817 23.7728 33.6886 24.7379 32.709 25.7166C30.833 24.1266 28.739 23.7596 26.427 24.6156C24.731 25.3956 23.55 26.6596 22.884 28.4076C21.7957 27.5974 20.7215 26.7682 19.662 25.9206C19.5884 25.8819 19.5043 25.8677 19.422 25.8801C21.105 22.6351 23.735 20.7051 27.312 20.0901" fill="#F44336"/>
<path opacity="0.997" fill-rule="evenodd" clip-rule="evenodd" d="M19.419 25.88C19.504 25.867 19.5845 25.8805 19.6605 25.9205C20.72 26.7681 21.7942 27.5973 22.8825 28.4075C22.7112 29.0886 22.6033 29.7841 22.56 30.485C22.597 31.163 22.7045 31.8285 22.8825 32.4815L19.5 35.174C18.027 32.096 18 28.998 19.419 25.88Z" fill="#FFC107"/>
<path opacity="0.999" fill-rule="evenodd" clip-rule="evenodd" d="M35.5275 38.4351C34.4743 37.5063 33.3717 36.635 32.2245 35.8251C33.3745 35.0131 34.0725 33.8991 34.3185 32.4831H28.683V28.5696C31.933 28.5426 35.1815 28.5701 38.4285 28.6521C39.0445 31.9971 38.333 35.0131 36.294 37.7001C36.0515 37.9578 35.7947 38.2031 35.5275 38.4351Z" fill="#448AFF"/>
<path opacity="0.993" fill-rule="evenodd" clip-rule="evenodd" d="M22.8825 32.4832C24.1125 35.5402 26.3675 36.9672 29.6475 36.7642C30.5682 36.6576 31.451 36.3359 32.2245 35.8252C33.3725 36.6372 34.4735 37.5072 35.5275 38.4352C33.8575 39.9358 31.7282 40.8263 29.487 40.9612C28.9778 41.0019 28.4662 41.0019 27.957 40.9612C24.139 40.5112 21.32 38.5822 19.5 35.1742L22.8825 32.4832Z" fill="#43A047"/>
<g clip-path="url(#clip0_76_2146)">
<path d="M49.489 16.2918C49.6781 15.9027 50.322 15.9027 50.511 16.2918L51.6269 18.5878C51.7066 18.7518 51.8868 18.8639 52.0937 18.8781L54.99 19.0768C55.4807 19.1105 55.6797 19.6346 55.3058 19.9087L53.0991 21.5264C52.9415 21.642 52.8727 21.8233 52.9208 21.9961L53.595 24.4149C53.7092 24.8248 53.1883 25.1487 52.7682 24.9291L50.2885 23.6328C50.1114 23.5402 49.8886 23.5402 49.7115 23.6328L47.2319 24.9291C46.8117 25.1487 46.2908 24.8248 46.405 24.4149L47.0792 21.9961C47.1273 21.8233 47.0585 21.642 46.9009 21.5264L44.6942 19.9087C44.3203 19.6346 44.5193 19.1105 45.01 19.0768L47.9064 18.8781C48.1132 18.8639 48.2934 18.7518 48.3731 18.5878L49.489 16.2918Z" fill="#F18D00"/>
<path d="M64.489 16.2918C64.6781 15.9027 65.322 15.9027 65.511 16.2918L66.6269 18.5878C66.7066 18.7518 66.8868 18.8639 67.0937 18.8781L69.99 19.0768C70.4807 19.1105 70.6797 19.6346 70.3058 19.9087L68.0991 21.5264C67.9415 21.642 67.8727 21.8233 67.9208 21.9961L68.595 24.4149C68.7092 24.8248 68.1883 25.1487 67.7682 24.9291L65.2885 23.6328C65.1114 23.5402 64.8886 23.5402 64.7115 23.6328L62.2319 24.9291C61.8117 25.1487 61.2908 24.8248 61.405 24.4149L62.0792 21.9961C62.1273 21.8233 62.0585 21.642 61.9009 21.5264L59.6942 19.9087C59.3203 19.6346 59.5193 19.1105 60.01 19.0768L62.9064 18.8781C63.1132 18.8639 63.2934 18.7518 63.3731 18.5878L64.489 16.2918Z" fill="#F18D00"/>
<path d="M79.489 16.2918C79.6781 15.9027 80.322 15.9027 80.511 16.2918L81.6269 18.5878C81.7066 18.7518 81.8868 18.8639 82.0937 18.8781L84.99 19.0768C85.4807 19.1105 85.6797 19.6346 85.3058 19.9087L83.0991 21.5264C82.9415 21.642 82.8727 21.8233 82.9208 21.9961L83.595 24.4149C83.7092 24.8248 83.1883 25.1487 82.7682 24.9291L80.2885 23.6328C80.1114 23.5402 79.8886 23.5402 79.7115 23.6328L77.2319 24.9291C76.8117 25.1487 76.2908 24.8248 76.405 24.4149L77.0792 21.9961C77.1273 21.8233 77.0585 21.642 76.9009 21.5264L74.6942 19.9087C74.3203 19.6346 74.5193 19.1105 75.01 19.0768L77.9064 18.8781C78.1132 18.8639 78.2934 18.7518 78.3731 18.5878L79.489 16.2918Z" fill="#F18D00"/>
<path d="M94.0354 16.2918C94.2073 15.9027 94.7927 15.9027 94.9646 16.2918L95.979 18.5878C96.0515 18.7518 96.2153 18.8639 96.4033 18.8781L99.0364 19.0768C99.4825 19.1105 99.6634 19.6346 99.3235 19.9087L97.3174 21.5264C97.1741 21.642 97.1115 21.8233 97.1553 21.9961L97.7682 24.4149C97.872 24.8248 97.3985 25.1487 97.0165 24.9291L94.7623 23.6328C94.6013 23.5402 94.3988 23.5402 94.2378 23.6328L91.9835 24.9291C91.6016 25.1487 91.128 24.8248 91.2318 24.4149L91.8447 21.9961C91.8885 21.8233 91.8259 21.642 91.6826 21.5264L89.6765 19.9087C89.3366 19.6346 89.5175 19.1105 89.9636 19.0768L92.5967 18.8781C92.7848 18.8639 92.9486 18.7518 93.021 18.5878L94.0354 16.2918Z" fill="#F18D00"/>
<path d="M108.489 16.2918C108.678 15.9027 109.322 15.9027 109.511 16.2918L110.627 18.5878C110.707 18.7518 110.887 18.8639 111.094 18.8781L113.99 19.0768C114.481 19.1105 114.68 19.6346 114.306 19.9087L112.099 21.5264C111.942 21.642 111.873 21.8233 111.921 21.9961L112.595 24.4149C112.709 24.8248 112.188 25.1487 111.768 24.9291L109.289 23.6328C109.111 23.5402 108.889 23.5402 108.712 23.6328L106.232 24.9291C105.812 25.1487 105.291 24.8248 105.405 24.4149L106.079 21.9961C106.127 21.8233 106.059 21.642 105.901 21.5264L103.694 19.9087C103.32 19.6346 103.519 19.1105 104.01 19.0768L106.906 18.8781C107.113 18.8639 107.293 18.7518 107.373 18.5878L108.489 16.2918Z" fill="#F18D00"/>
</g>
<path d="M46.5801 35.9395L45.7129 35.7168L46.1406 31.4688H50.5176V32.4707H47.0605L46.8027 34.791C46.959 34.7012 47.1562 34.6172 47.3945 34.5391C47.6367 34.4609 47.9141 34.4219 48.2266 34.4219C48.6211 34.4219 48.9746 34.4902 49.2871 34.627C49.5996 34.7598 49.8652 34.9512 50.084 35.2012C50.3066 35.4512 50.4766 35.752 50.5938 36.1035C50.7109 36.4551 50.7695 36.8477 50.7695 37.2812C50.7695 37.6914 50.7129 38.0684 50.5996 38.4121C50.4902 38.7559 50.3242 39.0566 50.1016 39.3145C49.8789 39.5684 49.5977 39.7656 49.2578 39.9062C48.9219 40.0469 48.5254 40.1172 48.0684 40.1172C47.7246 40.1172 47.3984 40.0703 47.0898 39.9766C46.7852 39.8789 46.5117 39.7324 46.2695 39.5371C46.0312 39.3379 45.8359 39.0918 45.6836 38.7988C45.5352 38.502 45.4414 38.1543 45.4023 37.7559H46.4336C46.4805 38.0762 46.5742 38.3457 46.7148 38.5645C46.8555 38.7832 47.0391 38.9492 47.2656 39.0625C47.4961 39.1719 47.7637 39.2266 48.0684 39.2266C48.3262 39.2266 48.5547 39.1816 48.7539 39.0918C48.9531 39.002 49.1211 38.873 49.2578 38.7051C49.3945 38.5371 49.498 38.334 49.5684 38.0957C49.6426 37.8574 49.6797 37.5898 49.6797 37.293C49.6797 37.0234 49.6426 36.7734 49.5684 36.543C49.4941 36.3125 49.3828 36.1113 49.2344 35.9395C49.0898 35.7676 48.9121 35.6348 48.7012 35.541C48.4902 35.4434 48.248 35.3945 47.9746 35.3945C47.6113 35.3945 47.3359 35.4434 47.1484 35.541C46.9648 35.6387 46.7754 35.7715 46.5801 35.9395ZM52.0938 39.4258C52.0938 39.2422 52.1504 39.0879 52.2637 38.9629C52.3809 38.834 52.5488 38.7695 52.7676 38.7695C52.9863 38.7695 53.1523 38.834 53.2656 38.9629C53.3828 39.0879 53.4414 39.2422 53.4414 39.4258C53.4414 39.6055 53.3828 39.7578 53.2656 39.8828C53.1523 40.0078 52.9863 40.0703 52.7676 40.0703C52.5488 40.0703 52.3809 40.0078 52.2637 39.8828C52.1504 39.7578 52.0938 39.6055 52.0938 39.4258ZM60.4785 35.0547V36.3555C60.4785 37.0547 60.416 37.6445 60.291 38.125C60.166 38.6055 59.9863 38.9922 59.752 39.2852C59.5176 39.5781 59.2344 39.791 58.9023 39.9238C58.5742 40.0527 58.2031 40.1172 57.7891 40.1172C57.4609 40.1172 57.1582 40.0762 56.8809 39.9941C56.6035 39.9121 56.3535 39.7812 56.1309 39.6016C55.9121 39.418 55.7246 39.1797 55.5684 38.8867C55.4121 38.5938 55.293 38.2383 55.2109 37.8203C55.1289 37.4023 55.0879 36.9141 55.0879 36.3555V35.0547C55.0879 34.3555 55.1504 33.7695 55.2754 33.2969C55.4043 32.8242 55.5859 32.4453 55.8203 32.1602C56.0547 31.8711 56.3359 31.6641 56.6641 31.5391C56.9961 31.4141 57.3672 31.3516 57.7773 31.3516C58.1094 31.3516 58.4141 31.3926 58.6914 31.4746C58.9727 31.5527 59.2227 31.6797 59.4414 31.8555C59.6602 32.0273 59.8457 32.2578 59.998 32.5469C60.1543 32.832 60.2734 33.1816 60.3555 33.5957C60.4375 34.0098 60.4785 34.4961 60.4785 35.0547ZM59.3887 36.5312V34.873C59.3887 34.4902 59.3652 34.1543 59.3184 33.8652C59.2754 33.5723 59.2109 33.3223 59.125 33.1152C59.0391 32.9082 58.9297 32.7402 58.7969 32.6113C58.668 32.4824 58.5176 32.3887 58.3457 32.3301C58.1777 32.2676 57.9883 32.2363 57.7773 32.2363C57.5195 32.2363 57.291 32.2852 57.0918 32.3828C56.8926 32.4766 56.7246 32.627 56.5879 32.834C56.4551 33.041 56.3535 33.3125 56.2832 33.6484C56.2129 33.9844 56.1777 34.3926 56.1777 34.873V36.5312C56.1777 36.9141 56.1992 37.252 56.2422 37.5449C56.2891 37.8379 56.3574 38.0918 56.4473 38.3066C56.5371 38.5176 56.6465 38.6914 56.7754 38.8281C56.9043 38.9648 57.0527 39.0664 57.2207 39.1328C57.3926 39.1953 57.582 39.2266 57.7891 39.2266C58.0547 39.2266 58.2871 39.1758 58.4863 39.0742C58.6855 38.9727 58.8516 38.8145 58.9844 38.5996C59.1211 38.3809 59.2227 38.1016 59.2891 37.7617C59.3555 37.418 59.3887 37.0078 59.3887 36.5312ZM65.1309 31.4688H67.9551C68.5957 31.4688 69.1367 31.5664 69.5781 31.7617C70.0234 31.957 70.3613 32.2461 70.5918 32.6289C70.8262 33.0078 70.9434 33.4746 70.9434 34.0293C70.9434 34.4199 70.8633 34.7773 70.7031 35.1016C70.5469 35.4219 70.3203 35.6953 70.0234 35.9219C69.7305 36.1445 69.3789 36.3105 68.9688 36.4199L68.6523 36.543H65.998L65.9863 35.623H67.9902C68.3965 35.623 68.7344 35.5527 69.0039 35.4121C69.2734 35.2676 69.4766 35.0742 69.6133 34.832C69.75 34.5898 69.8184 34.3223 69.8184 34.0293C69.8184 33.7012 69.7539 33.4141 69.625 33.168C69.4961 32.9219 69.293 32.7324 69.0156 32.5996C68.7422 32.4629 68.3887 32.3945 67.9551 32.3945H66.2617V40H65.1309V31.4688ZM70.1172 40L68.043 36.1328L69.2207 36.127L71.3242 39.9297V40H70.1172ZM77.9453 39.0801V40H73.4277V39.0801H77.9453ZM73.6562 31.4688V40H72.5254V31.4688H73.6562ZM77.3477 35.1367V36.0566H73.4277V35.1367H77.3477ZM77.8867 31.4688V32.3945H73.4277V31.4688H77.8867ZM82.0996 38.7051L84.6133 31.4688H85.8379L82.6797 40H81.8066L82.0996 38.7051ZM79.75 31.4688L82.2402 38.7051L82.5508 40H81.6777L78.5254 31.4688H79.75ZM88.1992 31.4688V40H87.0684V31.4688H88.1992ZM95.6758 39.0801V40H91.1582V39.0801H95.6758ZM91.3867 31.4688V40H90.2559V31.4688H91.3867ZM95.0781 35.1367V36.0566H91.1582V35.1367H95.0781ZM95.6172 31.4688V32.3945H91.1582V31.4688H95.6172ZM99.3203 37.4219L101.014 31.4688H101.834L101.359 33.7832L99.5371 40H98.7227L99.3203 37.4219ZM97.5684 31.4688L98.916 37.3047L99.3203 40H98.5117L96.4434 31.4688H97.5684ZM104.025 37.2988L105.344 31.4688H106.475L104.412 40H103.604L104.025 37.2988ZM101.957 31.4688L103.604 37.4219L104.201 40H103.387L101.629 33.7832L101.148 31.4688H101.957ZM112.275 37.8438C112.275 37.6445 112.244 37.4688 112.182 37.3164C112.123 37.1602 112.018 37.0195 111.865 36.8945C111.717 36.7695 111.51 36.6504 111.244 36.5371C110.982 36.4238 110.65 36.3086 110.248 36.1914C109.826 36.0664 109.445 35.9277 109.105 35.7754C108.766 35.6191 108.475 35.4414 108.232 35.2422C107.99 35.043 107.805 34.8145 107.676 34.5566C107.547 34.2988 107.482 34.0039 107.482 33.6719C107.482 33.3398 107.551 33.0332 107.688 32.752C107.824 32.4707 108.02 32.2266 108.273 32.0195C108.531 31.8086 108.838 31.6445 109.193 31.5273C109.549 31.4102 109.945 31.3516 110.383 31.3516C111.023 31.3516 111.566 31.4746 112.012 31.7207C112.461 31.9629 112.803 32.2812 113.037 32.6758C113.271 33.0664 113.389 33.4844 113.389 33.9297H112.264C112.264 33.6094 112.195 33.3262 112.059 33.0801C111.922 32.8301 111.715 32.6348 111.438 32.4941C111.16 32.3496 110.809 32.2773 110.383 32.2773C109.98 32.2773 109.648 32.3379 109.387 32.459C109.125 32.5801 108.93 32.7441 108.801 32.9512C108.676 33.1582 108.613 33.3945 108.613 33.6602C108.613 33.8398 108.65 34.0039 108.725 34.1523C108.803 34.2969 108.922 34.4316 109.082 34.5566C109.246 34.6816 109.453 34.7969 109.703 34.9023C109.957 35.0078 110.26 35.1094 110.611 35.207C111.096 35.3438 111.514 35.4961 111.865 35.6641C112.217 35.832 112.506 36.0215 112.732 36.2324C112.963 36.4395 113.133 36.6758 113.242 36.9414C113.355 37.2031 113.412 37.5 113.412 37.832C113.412 38.1797 113.342 38.4941 113.201 38.7754C113.061 39.0566 112.859 39.2969 112.598 39.4961C112.336 39.6953 112.021 39.8496 111.654 39.959C111.291 40.0645 110.885 40.1172 110.436 40.1172C110.041 40.1172 109.652 40.0625 109.27 39.9531C108.891 39.8438 108.545 39.6797 108.232 39.4609C107.924 39.2422 107.676 38.9727 107.488 38.6523C107.305 38.3281 107.213 37.9531 107.213 37.5273H108.338C108.338 37.8203 108.395 38.0723 108.508 38.2832C108.621 38.4902 108.775 38.6621 108.971 38.7988C109.17 38.9355 109.395 39.0371 109.645 39.1035C109.898 39.166 110.162 39.1973 110.436 39.1973C110.83 39.1973 111.164 39.1426 111.438 39.0332C111.711 38.9238 111.918 38.7676 112.059 38.5645C112.203 38.3613 112.275 38.1211 112.275 37.8438Z" fill="black" fill-opacity="0.7"/>
<g clip-path="url(#clip1_76_2146)">
<path d="M157 30.5C157 23.8726 151.627 18.5 145 18.5C138.373 18.5 133 23.8726 133 30.5C133 36.4895 137.388 41.454 143.125 42.3542V33.9687H140.078V30.5H143.125V27.8562C143.125 24.8487 144.917 23.1875 147.658 23.1875C148.971 23.1875 150.344 23.4219 150.344 23.4219V26.375H148.831C147.34 26.375 146.875 27.3 146.875 28.2491V30.5H150.203L149.671 33.9687H146.875V42.3542C152.612 41.454 157 36.4896 157 30.5Z" fill="#1877F2"/>
<path d="M149.671 33.9688L150.203 30.5H146.875V28.2491C146.875 27.2999 147.34 26.375 148.831 26.375H150.344V23.4219C150.344 23.4219 148.97 23.1875 147.658 23.1875C144.917 23.1875 143.125 24.8488 143.125 27.8563V30.5H140.078V33.9688H143.125V42.3542C143.745 42.4514 144.372 42.5001 145 42.5C145.628 42.5001 146.255 42.4514 146.875 42.3542V33.9688H149.671Z" fill="white"/>
</g>
<g clip-path="url(#clip2_76_2146)">
<path d="M165.989 16.2918C166.178 15.9027 166.822 15.9027 167.011 16.2918L168.127 18.5878C168.207 18.7518 168.387 18.8639 168.594 18.8781L171.49 19.0768C171.981 19.1105 172.18 19.6346 171.806 19.9087L169.599 21.5264C169.442 21.642 169.373 21.8233 169.421 21.9961L170.095 24.4149C170.209 24.8248 169.688 25.1487 169.268 24.9291L166.789 23.6328C166.611 23.5402 166.389 23.5402 166.212 23.6328L163.732 24.9291C163.312 25.1487 162.791 24.8248 162.905 24.4149L163.579 21.9961C163.627 21.8233 163.559 21.642 163.401 21.5264L161.194 19.9087C160.82 19.6346 161.019 19.1105 161.51 19.0768L164.406 18.8781C164.613 18.8639 164.793 18.7518 164.873 18.5878L165.989 16.2918Z" fill="#F18D00"/>
<path d="M180.989 16.2918C181.178 15.9027 181.822 15.9027 182.011 16.2918L183.127 18.5878C183.207 18.7518 183.387 18.8639 183.594 18.8781L186.49 19.0768C186.981 19.1105 187.18 19.6346 186.806 19.9087L184.599 21.5264C184.442 21.642 184.373 21.8233 184.421 21.9961L185.095 24.4149C185.209 24.8248 184.688 25.1487 184.268 24.9291L181.789 23.6328C181.611 23.5402 181.389 23.5402 181.212 23.6328L178.732 24.9291C178.312 25.1487 177.791 24.8248 177.905 24.4149L178.579 21.9961C178.627 21.8233 178.559 21.642 178.401 21.5264L176.194 19.9087C175.82 19.6346 176.019 19.1105 176.51 19.0768L179.406 18.8781C179.613 18.8639 179.793 18.7518 179.873 18.5878L180.989 16.2918Z" fill="#F18D00"/>
<path d="M195.989 16.2918C196.178 15.9027 196.822 15.9027 197.011 16.2918L198.127 18.5878C198.207 18.7518 198.387 18.8639 198.594 18.8781L201.49 19.0768C201.981 19.1105 202.18 19.6346 201.806 19.9087L199.599 21.5264C199.442 21.642 199.373 21.8233 199.421 21.9961L200.095 24.4149C200.209 24.8248 199.688 25.1487 199.268 24.9291L196.789 23.6328C196.611 23.5402 196.389 23.5402 196.212 23.6328L193.732 24.9291C193.312 25.1487 192.791 24.8248 192.905 24.4149L193.579 21.9961C193.627 21.8233 193.559 21.642 193.401 21.5264L191.194 19.9087C190.82 19.6346 191.019 19.1105 191.51 19.0768L194.406 18.8781C194.613 18.8639 194.793 18.7518 194.873 18.5878L195.989 16.2918Z" fill="#F18D00"/>
<path d="M210.535 16.2918C210.707 15.9027 211.293 15.9027 211.465 16.2918L212.479 18.5878C212.551 18.7518 212.715 18.8639 212.903 18.8781L215.536 19.0768C215.982 19.1105 216.163 19.6346 215.823 19.9087L213.817 21.5264C213.674 21.642 213.612 21.8233 213.655 21.9961L214.268 24.4149C214.372 24.8248 213.898 25.1487 213.517 24.9291L211.262 23.6328C211.101 23.5402 210.899 23.5402 210.738 23.6328L208.484 24.9291C208.102 25.1487 207.628 24.8248 207.732 24.4149L208.345 21.9961C208.388 21.8233 208.326 21.642 208.183 21.5264L206.177 19.9087C205.837 19.6346 206.018 19.1105 206.464 19.0768L209.097 18.8781C209.285 18.8639 209.449 18.7518 209.521 18.5878L210.535 16.2918Z" fill="#F18D00"/>
<path d="M224.989 16.2918C225.178 15.9027 225.822 15.9027 226.011 16.2918L227.127 18.5878C227.207 18.7518 227.387 18.8639 227.594 18.8781L230.49 19.0768C230.981 19.1105 231.18 19.6346 230.806 19.9087L228.599 21.5264C228.442 21.642 228.373 21.8233 228.421 21.9961L229.095 24.4149C229.209 24.8248 228.688 25.1487 228.268 24.9291L225.789 23.6328C225.611 23.5402 225.389 23.5402 225.212 23.6328L222.732 24.9291C222.312 25.1487 221.791 24.8248 221.905 24.4149L222.579 21.9961C222.627 21.8233 222.559 21.642 222.401 21.5264L220.194 19.9087C219.82 19.6346 220.019 19.1105 220.51 19.0768L223.406 18.8781C223.613 18.8639 223.793 18.7518 223.873 18.5878L224.989 16.2918Z" fill="#F18D00"/>
</g>
<path d="M163.08 35.9395L162.213 35.7168L162.641 31.4688H167.018V32.4707H163.561L163.303 34.791C163.459 34.7012 163.656 34.6172 163.895 34.5391C164.137 34.4609 164.414 34.4219 164.727 34.4219C165.121 34.4219 165.475 34.4902 165.787 34.627C166.1 34.7598 166.365 34.9512 166.584 35.2012C166.807 35.4512 166.977 35.752 167.094 36.1035C167.211 36.4551 167.27 36.8477 167.27 37.2812C167.27 37.6914 167.213 38.0684 167.1 38.4121C166.99 38.7559 166.824 39.0566 166.602 39.3145C166.379 39.5684 166.098 39.7656 165.758 39.9062C165.422 40.0469 165.025 40.1172 164.568 40.1172C164.225 40.1172 163.898 40.0703 163.59 39.9766C163.285 39.8789 163.012 39.7324 162.77 39.5371C162.531 39.3379 162.336 39.0918 162.184 38.7988C162.035 38.502 161.941 38.1543 161.902 37.7559H162.934C162.98 38.0762 163.074 38.3457 163.215 38.5645C163.355 38.7832 163.539 38.9492 163.766 39.0625C163.996 39.1719 164.264 39.2266 164.568 39.2266C164.826 39.2266 165.055 39.1816 165.254 39.0918C165.453 39.002 165.621 38.873 165.758 38.7051C165.895 38.5371 165.998 38.334 166.068 38.0957C166.143 37.8574 166.18 37.5898 166.18 37.293C166.18 37.0234 166.143 36.7734 166.068 36.543C165.994 36.3125 165.883 36.1113 165.734 35.9395C165.59 35.7676 165.412 35.6348 165.201 35.541C164.99 35.4434 164.748 35.3945 164.475 35.3945C164.111 35.3945 163.836 35.4434 163.648 35.541C163.465 35.6387 163.275 35.7715 163.08 35.9395ZM168.594 39.4258C168.594 39.2422 168.65 39.0879 168.764 38.9629C168.881 38.834 169.049 38.7695 169.268 38.7695C169.486 38.7695 169.652 38.834 169.766 38.9629C169.883 39.0879 169.941 39.2422 169.941 39.4258C169.941 39.6055 169.883 39.7578 169.766 39.8828C169.652 40.0078 169.486 40.0703 169.268 40.0703C169.049 40.0703 168.881 40.0078 168.764 39.8828C168.65 39.7578 168.594 39.6055 168.594 39.4258ZM176.979 35.0547V36.3555C176.979 37.0547 176.916 37.6445 176.791 38.125C176.666 38.6055 176.486 38.9922 176.252 39.2852C176.018 39.5781 175.734 39.791 175.402 39.9238C175.074 40.0527 174.703 40.1172 174.289 40.1172C173.961 40.1172 173.658 40.0762 173.381 39.9941C173.104 39.9121 172.854 39.7812 172.631 39.6016C172.412 39.418 172.225 39.1797 172.068 38.8867C171.912 38.5938 171.793 38.2383 171.711 37.8203C171.629 37.4023 171.588 36.9141 171.588 36.3555V35.0547C171.588 34.3555 171.65 33.7695 171.775 33.2969C171.904 32.8242 172.086 32.4453 172.32 32.1602C172.555 31.8711 172.836 31.6641 173.164 31.5391C173.496 31.4141 173.867 31.3516 174.277 31.3516C174.609 31.3516 174.914 31.3926 175.191 31.4746C175.473 31.5527 175.723 31.6797 175.941 31.8555C176.16 32.0273 176.346 32.2578 176.498 32.5469C176.654 32.832 176.773 33.1816 176.855 33.5957C176.938 34.0098 176.979 34.4961 176.979 35.0547ZM175.889 36.5312V34.873C175.889 34.4902 175.865 34.1543 175.818 33.8652C175.775 33.5723 175.711 33.3223 175.625 33.1152C175.539 32.9082 175.43 32.7402 175.297 32.6113C175.168 32.4824 175.018 32.3887 174.846 32.3301C174.678 32.2676 174.488 32.2363 174.277 32.2363C174.02 32.2363 173.791 32.2852 173.592 32.3828C173.393 32.4766 173.225 32.627 173.088 32.834C172.955 33.041 172.854 33.3125 172.783 33.6484C172.713 33.9844 172.678 34.3926 172.678 34.873V36.5312C172.678 36.9141 172.699 37.252 172.742 37.5449C172.789 37.8379 172.857 38.0918 172.947 38.3066C173.037 38.5176 173.146 38.6914 173.275 38.8281C173.404 38.9648 173.553 39.0664 173.721 39.1328C173.893 39.1953 174.082 39.2266 174.289 39.2266C174.555 39.2266 174.787 39.1758 174.986 39.0742C175.186 38.9727 175.352 38.8145 175.484 38.5996C175.621 38.3809 175.723 38.1016 175.789 37.7617C175.855 37.418 175.889 37.0078 175.889 36.5312ZM181.631 31.4688H184.455C185.096 31.4688 185.637 31.5664 186.078 31.7617C186.523 31.957 186.861 32.2461 187.092 32.6289C187.326 33.0078 187.443 33.4746 187.443 34.0293C187.443 34.4199 187.363 34.7773 187.203 35.1016C187.047 35.4219 186.82 35.6953 186.523 35.9219C186.23 36.1445 185.879 36.3105 185.469 36.4199L185.152 36.543H182.498L182.486 35.623H184.49C184.896 35.623 185.234 35.5527 185.504 35.4121C185.773 35.2676 185.977 35.0742 186.113 34.832C186.25 34.5898 186.318 34.3223 186.318 34.0293C186.318 33.7012 186.254 33.4141 186.125 33.168C185.996 32.9219 185.793 32.7324 185.516 32.5996C185.242 32.4629 184.889 32.3945 184.455 32.3945H182.762V40H181.631V31.4688ZM186.617 40L184.543 36.1328L185.721 36.127L187.824 39.9297V40H186.617ZM194.445 39.0801V40H189.928V39.0801H194.445ZM190.156 31.4688V40H189.025V31.4688H190.156ZM193.848 35.1367V36.0566H189.928V35.1367H193.848ZM194.387 31.4688V32.3945H189.928V31.4688H194.387ZM198.6 38.7051L201.113 31.4688H202.338L199.18 40H198.307L198.6 38.7051ZM196.25 31.4688L198.74 38.7051L199.051 40H198.178L195.025 31.4688H196.25ZM204.699 31.4688V40H203.568V31.4688H204.699ZM212.176 39.0801V40H207.658V39.0801H212.176ZM207.887 31.4688V40H206.756V31.4688H207.887ZM211.578 35.1367V36.0566H207.658V35.1367H211.578ZM212.117 31.4688V32.3945H207.658V31.4688H212.117ZM215.82 37.4219L217.514 31.4688H218.334L217.859 33.7832L216.037 40H215.223L215.82 37.4219ZM214.068 31.4688L215.416 37.3047L215.82 40H215.012L212.943 31.4688H214.068ZM220.525 37.2988L221.844 31.4688H222.975L220.912 40H220.104L220.525 37.2988ZM218.457 31.4688L220.104 37.4219L220.701 40H219.887L218.129 33.7832L217.648 31.4688H218.457ZM228.775 37.8438C228.775 37.6445 228.744 37.4688 228.682 37.3164C228.623 37.1602 228.518 37.0195 228.365 36.8945C228.217 36.7695 228.01 36.6504 227.744 36.5371C227.482 36.4238 227.15 36.3086 226.748 36.1914C226.326 36.0664 225.945 35.9277 225.605 35.7754C225.266 35.6191 224.975 35.4414 224.732 35.2422C224.49 35.043 224.305 34.8145 224.176 34.5566C224.047 34.2988 223.982 34.0039 223.982 33.6719C223.982 33.3398 224.051 33.0332 224.188 32.752C224.324 32.4707 224.52 32.2266 224.773 32.0195C225.031 31.8086 225.338 31.6445 225.693 31.5273C226.049 31.4102 226.445 31.3516 226.883 31.3516C227.523 31.3516 228.066 31.4746 228.512 31.7207C228.961 31.9629 229.303 32.2812 229.537 32.6758C229.771 33.0664 229.889 33.4844 229.889 33.9297H228.764C228.764 33.6094 228.695 33.3262 228.559 33.0801C228.422 32.8301 228.215 32.6348 227.938 32.4941C227.66 32.3496 227.309 32.2773 226.883 32.2773C226.48 32.2773 226.148 32.3379 225.887 32.459C225.625 32.5801 225.43 32.7441 225.301 32.9512C225.176 33.1582 225.113 33.3945 225.113 33.6602C225.113 33.8398 225.15 34.0039 225.225 34.1523C225.303 34.2969 225.422 34.4316 225.582 34.5566C225.746 34.6816 225.953 34.7969 226.203 34.9023C226.457 35.0078 226.76 35.1094 227.111 35.207C227.596 35.3438 228.014 35.4961 228.365 35.6641C228.717 35.832 229.006 36.0215 229.232 36.2324C229.463 36.4395 229.633 36.6758 229.742 36.9414C229.855 37.2031 229.912 37.5 229.912 37.832C229.912 38.1797 229.842 38.4941 229.701 38.7754C229.561 39.0566 229.359 39.2969 229.098 39.4961C228.836 39.6953 228.521 39.8496 228.154 39.959C227.791 40.0645 227.385 40.1172 226.936 40.1172C226.541 40.1172 226.152 40.0625 225.77 39.9531C225.391 39.8438 225.045 39.6797 224.732 39.4609C224.424 39.2422 224.176 38.9727 223.988 38.6523C223.805 38.3281 223.713 37.9531 223.713 37.5273H224.838C224.838 37.8203 224.895 38.0723 225.008 38.2832C225.121 38.4902 225.275 38.6621 225.471 38.7988C225.67 38.9355 225.895 39.0371 226.145 39.1035C226.398 39.166 226.662 39.1973 226.936 39.1973C227.33 39.1973 227.664 39.1426 227.938 39.0332C228.211 38.9238 228.418 38.7676 228.559 38.5645C228.703 38.3613 228.775 38.1211 228.775 37.8438Z" fill="black" fill-opacity="0.7"/>
<defs>
<clipPath id="clip0_76_2146">
<rect width="70" height="9" fill="white" transform="translate(44.5 16)"/>
</clipPath>
<clipPath id="clip1_76_2146">
<rect width="24" height="24" fill="white" transform="translate(133 18.5)"/>
</clipPath>
<clipPath id="clip2_76_2146">
<rect width="70" height="9" fill="white" transform="translate(161 16)"/>
</clipPath>
</defs>
</svg>
