<svg width="55" height="49" viewBox="0 0 55 49" fill="none" xmlns="http://www.w3.org/2000/svg">
<g clip-path="url(#clip0_76_1584)">
<path d="M9.5 0.5C6.19063 0.5 3.5 3.19063 3.5 6.5V42.5C3.5 45.8094 6.19063 48.5 9.5 48.5H28.3625C27.1906 47.1219 26.1875 45.6125 25.3812 44H16.9906V36.5C16.9906 34.8406 18.3312 33.5 19.9906 33.5H22.9906V30.9969C22.9906 29.3 23.5625 27.6969 24.5469 26.4219C24.5094 26.2906 24.4906 26.15 24.4906 26V23C24.4906 22.175 25.1656 21.5 25.9906 21.5H28.9906C29.8156 21.5 30.4906 22.175 30.4906 23V23.0938L38.6188 20.3844C38.9094 20.2906 39.2 20.2156 39.4906 20.15L39.5 6.5C39.5 3.19063 36.8094 0.5 33.5 0.5H9.5ZM12.5 11C12.5 10.175 13.175 9.5 14 9.5H17C17.825 9.5 18.5 10.175 18.5 11V14C18.5 14.825 17.825 15.5 17 15.5H14C13.175 15.5 12.5 14.825 12.5 14V11ZM26 9.5H29C29.825 9.5 30.5 10.175 30.5 11V14C30.5 14.825 29.825 15.5 29 15.5H26C25.175 15.5 24.5 14.825 24.5 14V11C24.5 10.175 25.175 9.5 26 9.5ZM12.5 23C12.5 22.175 13.175 21.5 14 21.5H17C17.825 21.5 18.5 22.175 18.5 23V26C18.5 26.825 17.825 27.5 17 27.5H14C13.175 27.5 12.5 26.825 12.5 26V23ZM42.2469 46.2969L41 46.8875V29.2531L50 32.2531V34.0906C50 39.3219 46.9812 44.075 42.2469 46.3063V46.2969ZM40.0531 24.8281L29.5531 28.325C28.325 28.7375 27.5 29.8813 27.5 31.175V34.0906C27.5 41.0656 31.5313 47.4125 37.8313 50.375L39.5656 51.1906C40.0156 51.3969 40.5031 51.5094 40.9906 51.5094C41.4781 51.5094 41.975 51.3969 42.4156 51.1906L44.15 50.375C50.4688 47.4031 54.5 41.0563 54.5 34.0813V31.1656C54.5 29.8719 53.675 28.7281 52.4469 28.3156L41.9469 24.8187C41.3281 24.6125 40.6625 24.6125 40.0531 24.8187V24.8281Z" fill="#02385C"/>
</g>
<defs>
<clipPath id="clip0_76_1584">
<rect width="54" height="48" fill="white" transform="translate(0.5 0.5)"/>
</clipPath>
</defs>
</svg>
