<svg width="49" height="49" viewBox="0 0 49 49" fill="none" xmlns="http://www.w3.org/2000/svg">
<path fill-rule="evenodd" clip-rule="evenodd" d="M21.414 2.91027C22.3321 2.12056 23.503 1.68628 24.714 1.68628C25.925 1.68628 27.0959 2.12056 28.014 2.91027C28.6883 3.49312 29.3546 4.07369 30.0129 4.65198C30.8883 4.47369 31.7694 4.30227 32.6563 4.13769C33.846 3.91284 35.0769 4.12197 36.1255 4.72714C37.1742 5.33231 37.9711 6.2934 38.3717 7.43598C38.6689 8.27712 38.9546 9.11255 39.2289 9.94226C40.0769 10.228 40.9271 10.5194 41.7797 10.8166C44.1454 11.6463 45.5443 14.0737 45.078 16.532C44.9089 17.428 44.7351 18.3148 44.5569 19.1926C45.1511 19.8646 45.7454 20.5457 46.3397 21.236C47.1294 22.1541 47.5637 23.325 47.5637 24.536C47.5637 25.747 47.1294 26.9179 46.3397 27.836C45.75 28.5217 45.1603 29.1983 44.5706 29.8657C44.7443 30.7251 44.9134 31.5926 45.078 32.468C45.3029 33.6577 45.0937 34.8886 44.4886 35.9372C43.8834 36.9859 42.9223 37.7828 41.7797 38.1834C40.9271 38.4806 40.078 38.772 39.2323 39.0577C38.9511 39.8897 38.6654 40.7251 38.3751 41.564C37.9751 42.7079 37.1779 43.6703 36.1285 44.2762C35.079 44.8821 33.8469 45.0912 32.6563 44.8657C31.7933 44.7029 30.9316 44.5338 30.0711 44.3583C29.4125 44.9402 28.7496 45.5174 28.0826 46.0897L26.9683 44.7903L28.086 46.0931C27.1675 46.8824 25.9964 47.316 24.7854 47.3154C23.5743 47.3148 22.4037 46.8799 21.486 46.0897C20.8117 45.5091 20.1454 44.9286 19.4871 44.348C18.6117 44.5263 17.7306 44.6988 16.8437 44.8657C15.6536 45.0904 14.4224 44.8807 13.3736 44.2749C12.3249 43.6691 11.5282 42.7072 11.1283 41.564C10.8311 40.7251 10.5454 39.8897 10.2711 39.0577C9.41879 38.7724 8.56848 38.4809 7.72029 38.1834C6.57771 37.7828 5.61662 36.9859 5.01145 35.9372C4.40628 34.8886 4.19714 33.6577 4.422 32.468C4.59115 31.5743 4.76486 30.6874 4.94315 29.8074C4.34388 29.1306 3.74958 28.4495 3.16029 27.764C2.37058 26.8459 1.9363 25.675 1.9363 24.464C1.9363 23.253 2.37058 22.0821 3.16029 21.164C3.75 20.4783 4.33972 19.8017 4.92943 19.1343C4.75572 18.2748 4.58657 17.4074 4.422 16.532C4.19714 15.3423 4.40628 14.1114 5.01145 13.0627C5.61662 12.0141 6.57771 11.2171 7.72029 10.8166C8.57286 10.5194 9.422 10.228 10.2677 9.94226C10.5466 9.11255 10.8323 8.27712 11.1249 7.43598C11.5249 6.29208 12.3221 5.3297 13.3715 4.7238C14.421 4.1179 15.6531 3.90871 16.8437 4.13427C17.7123 4.29884 18.574 4.46798 19.4289 4.64169C20.0826 4.06341 20.742 3.48627 21.414 2.91027ZM33.3386 19.5491C33.8437 19.0908 34.1461 18.4506 34.1792 17.7694C34.2123 17.0882 33.9734 16.4217 33.5151 15.9166C33.2882 15.6664 33.0143 15.4635 32.7089 15.3192C32.4035 15.175 32.0727 15.0923 31.7354 15.0759C31.0542 15.0428 30.3877 15.2817 29.8826 15.74C27.3626 18.0268 25.4391 20.108 23.814 22.6451C22.7499 24.3358 21.8355 26.1163 21.0814 27.9663L18.438 25.2406C18.203 24.9979 17.9224 24.8039 17.6124 24.6696C17.3024 24.5353 16.969 24.4634 16.6312 24.458C16.2934 24.4526 15.9579 24.5138 15.6437 24.638C15.3296 24.7623 15.043 24.9472 14.8003 25.1823C14.5576 25.4173 14.3636 25.6978 14.2293 26.0078C14.0951 26.3178 14.0232 26.6513 14.0178 26.989C14.0123 27.3268 14.0735 27.6624 14.1978 27.9765C14.322 28.2907 14.507 28.5773 14.742 28.82L20.2037 34.4497C20.509 34.7649 20.8899 34.9968 21.3102 35.1232C21.7305 35.2496 22.1761 35.2664 22.6047 35.1719C23.0332 35.0774 23.4305 34.8747 23.7586 34.5833C24.0867 34.2918 24.3348 33.9213 24.4791 33.5068C25.734 29.9068 26.8311 27.4623 28.1409 25.4188C29.4369 23.396 31.0106 21.6577 33.3351 19.5491" fill="#02385C"/>
</svg>
